<svg width="230px" height="90px" viewBox="0 0 230 90" version="1.1" xmlns="http://www.w3.org/2000/svg" xmlns:xlink="http://www.w3.org/1999/xlink">
  <g id="Logo-Negative" transform="translate(-285.000000, -255.000000)" fill="#FFFFFF">
    <g id="logo_carto_n_90" transform="translate(285.000000, 255.000000)">
      <circle id="Halo" fill-opacity="0.200000000" cx="185" cy="45" r="45"></circle>
      <path d="M14.801,59.9540049 C21.115,59.9540049 24.764,57.2070049 27.47,53.4760049 L21.484,49.2120049 C19.762,51.3030049 17.999,52.6970049 15.006,52.6970049 C10.988,52.6970049 8.159,49.3350049 8.159,45.0300049 L8.159,44.9480049 C8.159,40.7660049 10.988,37.3220049 15.006,37.3220049 C17.753,37.3220049 19.639,38.6750049 21.279,40.6840049 L27.265,36.0510049 C24.723,32.5660049 20.951,30.1060049 15.088,30.1060049 C6.396,30.1060049 0,36.6660049 0,45.0300049 L0,45.1120049 C0,53.6810049 6.601,59.9540049 14.801,59.9540049 L14.801,59.9540049 Z M41.0119876,59.3800049 L49.3349876,59.3800049 L51.3849876,54.2140049 L62.4959876,54.2140049 L64.5459876,59.3800049 L73.0739876,59.3800049 L60.8559876,30.4750049 L53.1889876,30.4750049 L41.0119876,59.3800049 Z M53.7219876,48.0230049 L56.9609876,39.9050049 L60.1589876,48.0230049 L53.7219876,48.0230049 Z M88.5619874,59.3800049 L96.5159874,59.3800049 L96.5159874,50.6880049 L100.041987,50.6880049 L105.822987,59.3800049 L114.965987,59.3800049 L108.118987,49.3760049 C111.685987,47.8590049 114.022987,44.9480049 114.022987,40.5200049 L114.022987,40.4380049 C114.022987,37.6090049 113.161987,35.4360049 111.480987,33.7550049 C109.553987,31.8280049 106.519987,30.6800049 102.132987,30.6800049 L88.5619874,30.6800049 L88.5619874,59.3800049 Z M96.5159874,44.4560049 L96.5159874,37.5270049 L101.763987,37.5270049 C104.387987,37.5270049 106.068987,38.6750049 106.068987,40.9710049 L106.068987,41.0530049 C106.068987,43.1440049 104.469987,44.4560049 101.804987,44.4560049 L96.5159874,44.4560049 Z M137.751987,59.3800049 L145.705987,59.3800049 L145.705987,37.6500049 L154.315987,37.6500049 L154.315987,30.6800049 L129.182987,30.6800049 L129.182987,37.6500049 L137.751987,37.6500049 L137.751987,59.3800049 Z M185,60 C193.284271,60 200,53.2842712 200,45 C200,36.7157288 193.284271,30 185,30 C176.715729,30 170,36.7157288 170,45 C170,53.2842712 176.715729,60 185,60 Z" id="Logotype"></path>
    </g>
  </g>
</svg>
