<?xml version="1.0" encoding="UTF-8" standalone="no"?>
<!DOCTYPE svg PUBLIC "-//W3C//DTD SVG 1.1//EN" "http://www.w3.org/Graphics/SVG/1.1/DTD/svg11.dtd">
<svg width="100%" height="100%" viewBox="0 0 426 90" version="1.1" xmlns="http://www.w3.org/2000/svg" xmlns:xlink="http://www.w3.org/1999/xlink" xml:space="preserve" style="fill-rule:evenodd;clip-rule:evenodd;stroke-linejoin:round;stroke-miterlimit:1.41421;">
    <g id="g14" transform="matrix(0.968593,0,0,-0.968593,-195.366,334.983)">
        <clipPath id="_clip1">
            <rect x="226.127" y="-135.542" width="673.512" height="476.224"/>
        </clipPath>
        <g clip-path="url(#_clip1)">
            <g id="path22" transform="matrix(1,0,0,1,231.139,302.74)">
                <path d="M0,0L24.162,0C24.68,5.744 19.818,11.565 12.598,11.639C6.48,11.714 1.031,7.22 0,0M-0.148,-3.317C0.146,-11.493 5.008,-17.461 13.041,-17.461C17.975,-17.461 21.586,-15.399 24.018,-13.188C24.459,-12.82 24.975,-12.599 25.344,-12.599C26.594,-12.599 27.553,-13.778 27.553,-14.882C27.553,-15.694 27.111,-16.431 26.594,-16.872C23.723,-19.599 18.713,-21.956 12.744,-21.956C2.063,-21.956 -5.012,-13.853 -5.012,-3.095C-5.012,7.882 2.652,16.135 12.598,16.135C22.25,16.135 29.025,8.839 29.025,0.735C29.025,-1.622 28.512,-3.317 25.936,-3.317L-0.148,-3.317L-0.148,-3.317Z" style="fill:white;fill-rule:nonzero;"/>
            </g>
            <g id="path26" transform="matrix(1,0,0,1,293.387,315.778)">
                <path d="M0,0C0,1.328 1.109,2.359 2.51,2.359C3.908,2.359 4.941,1.328 4.941,0L4.941,-20.26C4.941,-28.732 -0.145,-34.994 -9.502,-34.994C-18.857,-34.994 -23.867,-28.732 -23.867,-20.26L-23.867,0C-23.867,1.328 -22.836,2.359 -21.436,2.359C-20.109,2.359 -19.006,1.328 -19.006,0L-19.006,-20.406C-19.006,-26.301 -15.615,-30.499 -9.502,-30.499C-3.387,-30.499 0,-26.301 0,-20.406L0,0Z" style="fill:white;fill-rule:nonzero;"/>
            </g>
            <g id="path30" transform="matrix(1,0,0,1,309.373,315.926)">
                <path d="M0,0C0,1.181 0.885,2.212 2.357,2.212C3.904,2.212 4.717,1.327 4.717,0L4.717,-5.229C7.146,-0.294 10.758,2.949 17.314,2.949C19.082,2.949 19.967,2.064 19.967,0.812C19.967,-0.514 19.156,-1.547 17.535,-1.547C10.094,-1.547 4.936,-6.481 4.936,-14.882L4.936,-32.046C4.936,-33.447 3.834,-34.405 2.506,-34.405C1.035,-34.405 0,-33.447 0,-32.046L0,0Z" style="fill:white;fill-rule:nonzero;"/>
            </g>
            <g id="path34" transform="matrix(1,0,0,1,428.112,299.126)">
                <path d="M0,0C4.836,0 7.307,2.745 7.307,6.973C7.307,11.477 4.67,13.947 -0.109,13.947L-6.646,13.947L-6.646,0L0,0ZM0.22,20.098C8.953,20.098 14.389,14.99 14.389,6.973C14.389,-1.209 8.732,-6.15 0,-6.15L-6.646,-6.15L-6.646,-14.332C-6.646,-16.363 -8.073,-17.792 -10.106,-17.792C-12.136,-17.792 -13.565,-16.363 -13.565,-14.332L-13.565,16.639C-13.565,18.67 -12.136,20.098 -10.106,20.098L0.22,20.098Z" style="fill:white;fill-rule:nonzero;"/>
            </g>
            <g id="path38" transform="matrix(1,0,0,1,452.333,281.334)">
                <path d="M0,0C-2.252,0 -3.514,1.429 -3.514,3.46L-3.514,34.431C-3.514,36.462 -2.086,37.89 -0.055,37.89C1.977,37.89 3.404,36.462 3.404,34.431L3.404,6.096L18.176,6.096C20.154,6.096 21.58,4.942 21.58,3.075C21.58,1.153 20.154,0 18.176,0L0,0Z" style="fill:white;fill-rule:nonzero;"/>
            </g>
            <g id="path42" transform="matrix(1,0,0,1,488.464,295.556)">
                <path d="M0,0L11.201,0L5.598,14.168L0,0ZM13.451,-5.71L-2.252,-5.71L-4.777,-12.08C-5.437,-13.672 -6.428,-14.222 -7.963,-14.222C-9.994,-14.222 -11.369,-13.013 -11.369,-11.201C-11.369,-10.377 -11.205,-9.828 -10.766,-8.785L1.754,20.648C2.525,22.57 3.734,23.668 5.709,23.668C7.687,23.668 8.951,22.57 9.717,20.648L22.238,-8.785C22.621,-9.666 22.787,-10.323 22.787,-10.871C22.787,-12.902 21.197,-14.222 19.162,-14.222C17.461,-14.222 16.473,-13.398 15.758,-11.586L13.451,-5.71L13.451,-5.71Z" style="fill:white;fill-rule:nonzero;"/>
            </g>
            <g id="path46" transform="matrix(1,0,0,1,540.077,315.819)">
                <path d="M0,0C0,2.087 1.482,3.404 3.459,3.404C5.381,3.404 6.918,2.087 6.918,0L6.918,-31.135C6.918,-33.002 5.711,-34.485 3.625,-34.485C2.307,-34.485 1.373,-34.046 0.439,-32.893L-15.869,-10.818L-15.869,-31.135C-15.869,-33.223 -17.354,-34.485 -19.33,-34.485C-21.307,-34.485 -22.789,-33.223 -22.789,-31.135L-22.789,-0.439C-22.789,1.592 -21.855,3.404 -19.383,3.404C-18.285,3.404 -17.242,2.965 -16.42,1.811L0,-21.307L0,0Z" style="fill:white;fill-rule:nonzero;"/>
            </g>
            <g id="path50" transform="matrix(1,0,0,1,578.841,287.43)">
                <path d="M0,0C1.977,0 3.184,-1.153 3.184,-3.021C3.184,-4.942 1.977,-6.096 0,-6.096L-20.043,-6.096C-22.24,-6.096 -23.5,-4.667 -23.5,-2.636L-23.5,28.335C-23.5,30.366 -22.24,31.794 -19.988,31.794L-0.055,31.794C1.924,31.794 3.184,30.641 3.184,28.719C3.184,26.853 1.924,25.644 -0.055,25.644L-16.584,25.644L-16.584,16.199L-6.039,16.199C-4.064,16.199 -2.637,15.045 -2.637,13.179C-2.637,11.257 -4.064,10.104 -6.039,10.104L-16.584,10.104L-16.584,0L0,0Z" style="fill:white;fill-rule:nonzero;"/>
            </g>
            <g id="path54" transform="matrix(1,0,0,1,613.544,319.224)">
                <path d="M0,0C1.975,0 3.402,-1.153 3.402,-3.075C3.402,-4.941 1.975,-6.15 0,-6.15L-9.006,-6.15L-9.006,-34.43C-9.006,-36.461 -10.432,-37.89 -12.465,-37.89C-14.553,-37.89 -15.926,-36.461 -15.926,-34.43L-15.926,-6.15L-24.986,-6.15C-26.961,-6.15 -28.334,-4.941 -28.334,-3.075C-28.334,-1.153 -26.961,0 -24.986,0L0,0Z" style="fill:white;fill-rule:nonzero;"/>
            </g>
            <g id="path58" transform="matrix(1,0,0,1,372.043,308.522)">
                <path d="M0,0C-5.629,0 -10.205,-4.576 -10.205,-10.198C-10.205,-15.821 -5.629,-20.395 0,-20.395C5.621,-20.395 10.195,-15.821 10.195,-10.198C10.195,-4.576 5.621,0 0,0" style="fill:white;fill-rule:nonzero;"/>
            </g>
            <g id="path62" transform="matrix(1,0,0,1,372.039,318.676)">
                <path d="M0,0C-11.223,0 -20.352,-9.13 -20.352,-20.353C-20.352,-31.574 -11.223,-40.703 0,-40.703L0,-38.703C-10.119,-38.703 -18.352,-30.471 -18.352,-20.353C-18.352,-10.233 -10.119,-2 0,-2C10.117,-2 18.35,-10.233 18.35,-20.353C18.35,-25.055 16.582,-29.475 13.434,-32.85C13.02,-32.646 12.561,-32.522 12.068,-32.522C10.344,-32.522 8.945,-33.92 8.945,-35.644C8.945,-37.368 10.344,-38.766 12.068,-38.766C13.791,-38.766 15.189,-37.368 15.189,-35.644C15.189,-35.144 15.061,-34.678 14.852,-34.259C18.373,-30.512 20.35,-25.591 20.35,-20.353C20.35,-9.13 11.221,0 0,0" style="fill:white;fill-rule:nonzero;"/>
            </g>
            <g id="path66" transform="matrix(1,0,0,1,333.803,298.322)">
                <path d="M0,0C0,15.685 9.396,29.609 23.939,35.477C27.533,36.927 31.297,37.802 35.158,38.107C35.613,36.944 36.738,36.117 38.063,36.117C39.785,36.117 41.184,37.515 41.184,39.239C41.184,40.962 39.785,42.36 38.063,42.36C36.641,42.36 35.455,41.404 35.076,40.106C30.984,39.79 26.998,38.868 23.191,37.332C7.889,31.157 -2,16.504 -2,0C-2,-22.186 16.051,-40.234 38.236,-40.234L38.236,-38.234C17.152,-38.234 0,-21.082 0,0" style="fill:white;fill-rule:nonzero;"/>
            </g>
            <g id="path70" transform="matrix(1,0,0,1,402.01,301.313)">
                <path d="M0,0C-1.506,15.211 -14.371,27.133 -29.971,27.133C-46.58,27.133 -60.094,13.619 -60.094,-2.991C-60.094,-19.601 -46.58,-33.113 -29.971,-33.113L-29.971,-31.113C-45.479,-31.113 -58.094,-18.498 -58.094,-2.991C-58.094,12.517 -45.479,25.133 -29.971,25.133C-15.443,25.133 -3.453,14.059 -1.998,-0.093C-3.152,-0.551 -3.971,-1.672 -3.971,-2.989C-3.971,-4.714 -2.574,-6.111 -0.85,-6.111C0.875,-6.111 2.271,-4.714 2.271,-2.989C2.271,-1.562 1.309,-0.372 0,0" style="fill:white;fill-rule:nonzero;"/>
            </g>
        </g>
    </g>
</svg>
