<?xml version="1.0" encoding="UTF-8"?>
<svg width="322px" height="50px" viewBox="0 0 322 50" version="1.1" xmlns="http://www.w3.org/2000/svg" xmlns:xlink="http://www.w3.org/1999/xlink">
    <!-- Generator: Sketch 42 (36781) - http://www.bohemiancoding.com/sketch -->
    <title>op-logowtxt-dark</title>
    <desc>Created with Sketch.</desc>
    <defs></defs>
    <g id="Symbols" stroke="none" stroke-width="1" fill="none" fill-rule="evenodd">
        <g id="op-logowtxt-dark" fill="#303E4D">
            <g id="op-logo-dark">
                <path d="M18.6377246,49.183213 L18.6377246,42.6827912 C20.6246299,43.3977894 22.7668128,43.7874251 25,43.7874251 C35.3760084,43.7874251 43.7874251,35.3760084 43.7874251,25 C43.7874251,14.6239916 35.3760084,6.21257485 25,6.21257485 C14.6239916,6.21257485 6.21257485,14.6239916 6.21257485,25 C6.21257485,25.0999847 6.2133559,25.1997871 6.21491222,25.2994012 L6.21257485,25.2994012 L6.21257485,41.4939037 C2.34509469,37.0921348 0,31.3199305 0,25 C0,11.1928813 11.1928813,0 25,0 C38.8071187,0 50,11.1928813 50,25 C50,38.8071187 38.8071187,50 25,50 C22.8014089,50 20.6691046,49.7161919 18.6377246,49.183213 Z M25,31.3622754 C21.4862123,31.3622754 18.6377246,28.5137877 18.6377246,25 C18.6377246,21.4862123 21.4862123,18.6377246 25,18.6377246 C28.5137877,18.6377246 31.3622754,21.4862123 31.3622754,25 C31.3622754,28.5137877 28.5137877,31.3622754 25,31.3622754 Z"></path>
            </g>
            <path d="M71.3762793,12.8654191 C78.6008635,12.8654191 84.3380333,18.4147804 84.3380333,25.4678395 C84.3380333,32.5208987 78.6008635,38.1418646 71.3762793,38.1418646 C64.1162804,38.1418646 58.3791105,32.5208987 58.3791105,25.4678395 C58.3791105,18.378978 64.1162804,12.8654191 71.3762793,12.8654191 Z M71.3762793,15.5863962 C65.8515972,15.5863962 61.2476955,19.9542806 61.2476955,25.4678395 C61.2476955,30.9813985 65.8515972,35.3850852 71.3762793,35.3850852 C76.9009613,35.3850852 81.4340338,30.9813985 81.4340338,25.4678395 C81.4340338,19.9542806 76.9009613,15.5863962 71.3762793,15.5863962 Z M99.247592,19.02342 C104.524372,19.02342 108.207493,22.9616764 108.207493,28.6184446 C108.207493,34.2036082 104.595201,38.1060623 99.3184213,38.1060623 C95.9894462,38.1060623 93.4395929,36.5665621 92.0584224,33.9529919 L92.0584224,44.9443075 L89.2960813,44.9443075 L89.2960813,19.130827 L92.0584224,19.130827 L92.0584224,23.2122927 C93.4395929,20.5629202 95.9894462,19.02342 99.247592,19.02342 Z M98.7517872,35.5640968 C102.647396,35.5640968 105.409737,32.6283057 105.409737,28.54684 C105.409737,24.5011766 102.647396,21.5295831 98.7517872,21.5295831 C94.8207634,21.5295831 92.0584224,24.4653743 92.0584224,28.54684 C92.0584224,32.664108 94.8207634,35.5640968 98.7517872,35.5640968 Z M120.42554,19.0592223 C126.446027,19.02342 129.420856,23.248095 129.137539,29.6567122 L113.909248,29.6567122 C114.405053,33.3443523 117.06115,35.6715038 120.673442,35.6715038 C122.975393,35.6715038 124.994027,34.8480502 126.446027,33.30855 L127.968856,34.9554572 C126.198124,36.9603877 123.577442,38.1060623 120.460955,38.1060623 C114.971687,38.1060623 111.182322,34.2036082 111.182322,28.5826423 C111.182322,22.9616764 115.007102,19.0592223 120.42554,19.0592223 Z M113.909248,27.3653631 L126.658515,27.3653631 C126.481441,23.7493277 124.073247,21.4579785 120.42554,21.4579785 C116.884077,21.4579785 114.334224,23.78513 113.909248,27.3653631 Z M143.870024,19.02342 C140.47022,19.0592223 137.955781,20.4197109 136.64544,23.2838974 L136.64544,19.130827 L133.883099,19.130827 L133.883099,37.9986553 L136.64544,37.9986553 L136.64544,27.8665957 C136.964171,24.2863626 139.230708,21.8518041 142.913829,21.8160018 C146.20739,21.8160018 148.190609,23.78513 148.190609,27.1147468 L148.190609,37.9986553 L150.95295,37.9986553 L150.95295,26.3628978 C150.95295,21.8160018 148.332267,19.02342 143.870024,19.02342 Z M157.008851,12.9370238 L166.889533,12.9370238 C173.122507,12.9370238 176.699385,16.0518265 176.699385,21.4937808 C176.699385,27.1505491 173.122507,30.4443635 166.889533,30.4443635 L161.187777,30.4443635 L161.187777,37.9986553 L157.008851,37.9986553 L157.008851,12.9370238 Z M161.187777,16.7320708 L161.187777,26.6493165 L166.71246,26.6493165 C170.537239,26.6493165 172.697532,25.0024092 172.697532,21.6011878 C172.697532,18.3073734 170.537239,16.7320708 166.71246,16.7320708 L161.187777,16.7320708 Z M184.844749,37.9986553 L184.844749,11.4333259 L180.772067,11.4333259 L180.772067,37.9986553 L184.844749,37.9986553 Z M202.339576,37.9986553 L202.339576,35.6715038 C200.99382,37.3542134 198.833528,38.177667 196.106601,38.177667 C192.033919,38.177667 189.484066,35.6357015 189.484066,32.2702824 C189.484066,28.7974563 192.069334,26.5777118 196.602406,26.5419095 L202.304161,26.5419095 L202.304161,25.9690722 C202.304161,23.570316 200.781332,22.1382228 197.806503,22.1382228 C196.000357,22.1382228 194.123382,22.7826647 192.246407,24.0715486 L190.581919,21.2073622 C193.202602,19.6320596 195.114992,18.808606 198.691869,18.808606 C203.543673,18.808606 206.2706,21.3147692 206.306014,25.5036419 L206.341429,37.9986553 L202.339576,37.9986553 Z M196.956552,34.9196549 C199.860552,34.9196549 202.091674,33.3801546 202.304161,31.3036195 L202.304161,29.5493052 L197.204455,29.5493052 C194.548358,29.5493052 193.308846,30.2653519 193.308846,32.0912707 C193.308846,33.8097826 194.690016,34.9196549 196.956552,34.9196549 Z M222.809231,18.808606 C219.621915,18.808606 217.21372,19.9542806 215.867964,22.6036531 L215.867964,18.9518153 L211.795282,18.9518153 L211.795282,37.9986553 L215.867964,37.9986553 L215.867964,27.8665957 C216.151281,24.8950022 218.099086,22.7110601 221.215573,22.6752577 C224.048743,22.6752577 225.748645,24.4295719 225.748645,27.2937584 L225.748645,37.9986553 L229.821328,37.9986553 L229.821328,26.1480838 C229.821328,21.6011878 227.200645,18.808606 222.809231,18.808606 Z M243.030984,18.808606 C249.65352,18.808606 252.345032,23.1764904 251.849227,30.0505379 L237.612546,30.0505379 C238.250009,32.986329 240.481131,34.8122479 243.45596,34.8122479 C245.510008,34.8122479 247.386984,34.0245966 248.768154,32.5925034 L250.928446,34.9196549 C249.086886,36.9603877 246.395374,38.1418646 243.137228,38.1418646 C237.329229,38.1418646 233.504449,34.2394106 233.504449,28.5110377 C233.504449,22.7468624 237.435473,18.8444083 243.030984,18.808606 Z M237.541717,27.0431421 L248.307764,27.0431421 C248.166105,23.9641416 246.147472,22.1024204 243.066399,22.1024204 C240.09157,22.1024204 238.002107,23.999944 237.541717,27.0431421 Z M265.731761,33.630771 C264.633908,34.1678059 263.748542,34.4542246 262.898591,34.4542246 C261.623664,34.4542246 260.879957,33.8455849 260.879957,31.8764567 L260.879957,22.7468624 L266.440054,22.7468624 L266.440054,19.6678619 L260.879957,19.6678619 L260.879957,14.4407216 L256.842689,14.4407216 L256.842689,19.6678619 L254.186592,19.6678619 L254.186592,22.7468624 L256.842689,22.7468624 L256.842689,32.6283057 C256.842689,36.5307597 259.286299,38.177667 262.119469,38.177667 C263.713127,38.177667 265.271371,37.6764343 266.758785,36.7813761 L265.731761,33.630771 Z M281.810003,37.9986553 L281.810003,35.6715038 C280.464247,37.3542134 278.303954,38.177667 275.577028,38.177667 C271.504346,38.177667 268.954492,35.6357015 268.954492,32.2702824 C268.954492,28.7974563 271.53976,26.5777118 276.072833,26.5419095 L281.774588,26.5419095 L281.774588,25.9690722 C281.774588,23.570316 280.251759,22.1382228 277.27693,22.1382228 C275.470784,22.1382228 273.593809,22.7826647 271.716833,24.0715486 L270.052346,21.2073622 C272.673028,19.6320596 274.585418,18.808606 278.162296,18.808606 C283.0141,18.808606 285.741026,21.3147692 285.776441,25.5036419 L285.811856,37.9986553 L281.810003,37.9986553 Z M276.426979,34.9196549 C279.330979,34.9196549 281.5621,33.3801546 281.774588,31.3036195 L281.774588,29.5493052 L276.674881,29.5493052 C274.018784,29.5493052 272.779272,30.2653519 272.779272,32.0912707 C272.779272,33.8097826 274.160443,34.9196549 276.426979,34.9196549 Z M295.338391,18.9518153 L291.265708,18.9518153 L291.265708,37.9986553 L295.338391,37.9986553 L295.338391,28.0456074 C295.657122,24.7875952 298.065317,22.5320484 301.854682,22.7468624 L301.854682,18.808606 C298.879854,18.808606 296.613317,20.1690946 295.338391,22.7468624 L295.338391,18.9518153 Z M321.19107,18.9518153 L317.118387,18.9518153 L311.877022,33.3801546 L306.246096,18.9518153 L302.031756,18.9518153 L309.822974,37.7122367 L309.185511,39.1443299 C308.548047,40.5764231 307.556438,41.2566674 306.316926,41.2566674 C305.466975,41.2566674 304.758682,40.9702488 303.873316,40.3258068 L302.137999,43.5122143 C303.448341,44.6220865 304.794097,45.1233191 306.493999,45.1233191 C309.327169,45.1233191 311.452047,43.6196212 312.62073,40.6122255 L321.19107,18.9518153 Z" id="op-text-dark"></path>
        </g>
    </g>
</svg>